<?xml version="1.0" encoding="utf-8"?>
<!-- Generator: Adobe Illustrator 28.1.0, SVG Export Plug-In . SVG Version: 6.00 Build 0)  -->
<svg version="1.1" id="Layer_2_00000150790303971792084310000010605820150637819791_"
	 xmlns="http://www.w3.org/2000/svg" xmlns:xlink="http://www.w3.org/1999/xlink" x="0px" y="0px" viewBox="0 0 603.8 131.3"
	 style="enable-background:new 0 0 603.8 131.3;" xml:space="preserve">
<style type="text/css">
	.st0{fill:#808080;}
	.st1{fill:#CE6B00;}
	.st2{fill:#0057B1;}
	.st3{enable-background:new    ;}
</style>
<g>
	<g>
		<path class="st0" d="M208.5,4.5L208.5,4.5c-2.4,0.3-4.2,2.3-4.2,8.3c0,14.1,0,34.3,0,54.3c0,18.2,0,36.2,0,49.2v11.5l-55.2-55.2
			l4.5-2.1l1.8-5.2l39.4,39.4V13.9c-0.2-6,0.7-9.2,4.6-12"/>
		<path class="st0" d="M99.2,127c3.9-2.8,4-5.1,3.8-11.1V25l35,35l2.9-5l5.9,0.3L93.4,1.9v11.5c0,13.1,0,31,0,49.2
			c0,20,0,40.2,0,54.3c0,6-2.3,9.2-4.7,9.6C88.8,126.6,99.2,127,99.2,127z"/>
	</g>
	<path class="st1" d="M33.4,89.2c-1.6,0-3.2-0.1-5-0.3c-0.3,0-0.5-0.1-0.6-0.1c-2.2,0-22.7-4.9-25.3-22.4C0,49.9,10.2,40.2,15.7,35
		l0.9-0.9c5.2-5,26.4-21.6,27.3-22.3l0,0c1.1-0.8,2-0.7,2.6-0.5c0.7,0.3,1.1,0.9,1.2,1.4c0.6,1.5,8.2,20.8,12.9,34.7
		c5.2,15.2-0.9,26.8-1.2,27.3l-0.1,0.1C55.1,81.6,47.1,89.2,33.4,89.2L33.4,89.2z M27.9,85.3c0.1,0,0.5,0,0.9,0.1
		c14.9,1.8,23.2-5.7,27.6-12.4c0.4-0.8,5.4-11.3,0.9-24.4c-4.1-12-10.3-28-12.3-33.1c-4.5,3.5-21.5,17-25.9,21.2l-0.9,0.9
		C12.8,42.7,3.8,51.2,6,65.9C8.2,80.4,25.5,85.1,27.9,85.3L27.9,85.3L27.9,85.3z M45,13.2l1.1,1.4c0,0,0,0,0,0L45,13.2L45,13.2z"/>
	<path class="st2" d="M33,81.9c-1.5,0-3-0.2-4.4-0.6c-7.3-2-12.3-8.6-12.3-16.2c0-9.2,7.5-16.8,16.8-16.8s16.8,7.5,16.8,16.8
		S42.2,81.9,33,81.9z M33,52c-7.3,0-13.2,5.9-13.2,13.2c0,5.9,4,11.2,9.7,12.7c1.1,0.3,2.3,0.5,3.5,0.5c7.3,0,13.2-5.9,13.2-13.2
		S40.3,52,33,52z"/>
	<path class="st1" d="M244.2,119.2c-0.3,0-0.6-0.1-0.8-0.2c-0.7-0.3-1.1-0.8-1.2-1.4c-0.6-1.6-8.1-20.8-12.9-34.7
		c-5.2-15.2,0.9-26.8,1.2-27.3l0.1-0.1c4.9-7.5,14.2-16.1,31-14c0.3,0,0.5,0.1,0.6,0.1c2.2,0,22.7,4.9,25.3,22.4
		c2.5,16.5-7.7,26.2-13.2,31.4l-0.9,0.9c-5.2,5-26.4,21.6-27.3,22.3l0,0C245.3,119,244.7,119.2,244.2,119.2L244.2,119.2z
		 M243.8,115.7C243.8,115.7,243.8,115.7,243.8,115.7l1.1,1.4L243.8,115.7L243.8,115.7z M233.5,57.3c-0.4,0.8-5.4,11.3-0.9,24.4
		c4.1,12.1,10.3,28,12.3,33.1c4.5-3.5,21.5-17,25.9-21.2l0.9-0.9c5.4-5.1,14.4-13.6,12.1-28.3c-2.2-14.5-19.5-19.2-21.9-19.4
		c-0.1,0-0.5,0-0.9-0.1C246.1,43.2,237.8,50.7,233.5,57.3L233.5,57.3z"/>
	<path class="st2" d="M256.9,81.9c-9.2,0-16.8-7.5-16.8-16.8s7.5-16.8,16.8-16.8c1.5,0,3,0.2,4.4,0.6c7.3,2,12.3,8.6,12.3,16.2
		C273.6,74.4,266.1,81.9,256.9,81.9L256.9,81.9z M256.9,52c-7.3,0-13.2,5.9-13.2,13.2s5.9,13.2,13.2,13.2c7.3,0,13.2-5.9,13.2-13.2
		c0-5.9-4-11.2-9.7-12.7C259.2,52.1,258.1,52,256.9,52z"/>
	<path class="st2" d="M150.1,55.6l-3.2-1.5l0.6-1.2c14-30.3,30.6-46.5,52.3-51c16.9-3.5,35.1,3,48.6,17.6
		c9.7,10.4,14.4,22.7,11.9,31.2l-3.4-1c2.1-7.2-2.4-18.4-11.1-27.8C233.1,8.3,216.1,2.1,200.4,5.4c-20.5,4.3-36.3,19.9-49.8,49.1
		L150.1,55.6L150.1,55.6z"/>
	<path class="st2" d="M79.7,130.8c-15.8,0-26.8-6.6-37.8-16.3c-15-13.3-15.1-33.6-15.1-34.4l3.5,0c0,0.2,0.1,19.5,13.9,31.7
		c13.2,11.7,25.8,18.2,47.2,14.2l0.2,0c0.2,0,26.3-2.7,48.7-51.5c0.1-0.3,0.3-0.6,0.4-1L144,75c-0.1,0.4-0.3,0.7-0.5,1.1
		c-22.8,49.9-49.3,53.4-51.5,53.6C87.6,130.4,83.5,130.8,79.7,130.8L79.7,130.8z"/>
	<path class="st2" d="M146.8,76c-7.7,0.6-14.1-6.1-13-13.9c0.6-3.9,3-7.3,6.5-9c2.8-1.3,5.8-1.6,8.6-0.8c5.9,1.6,9.7,7.4,8.8,13.6
		C156.9,71.3,152.3,75.6,146.8,76L146.8,76z M145.8,57.8c-3.4,0-6.2,2.8-6.2,6.2s2.8,6.2,6.2,6.2c0.6,0,1.2-0.1,1.8-0.3
		c2.6-0.8,4.4-3.2,4.4-6s-1.9-5.3-4.6-6C146.9,57.8,146.4,57.8,145.8,57.8L145.8,57.8z"/>
</g>
<g class="st3">
	<path class="st1" d="M355.7,66.4l-37.9-49.7v36.5c0,2.2,0.1,3.8,0.2,5c0.1,1.2,0.5,2.1,1,2.7c0.6,0.6,1.4,1.1,2.6,1.4
		c1.2,0.4,2.9,0.7,5.1,0.9c0.1,0.9,0.1,1.8,0,2.7c-1.7,0-3.6,0-5.7-0.1c-2.1-0.1-3.8-0.1-5.2-0.1c-1.4,0-3.2,0-5.2,0.1
		c-2.1,0.1-3.9,0.1-5.6,0.1c-0.2-0.9-0.2-1.8,0-2.7c2-0.3,3.6-0.6,4.8-0.8c1.1-0.3,2-0.7,2.5-1.2c0.5-0.5,0.8-1.3,1-2.4
		c0.1-1.1,0.2-2.6,0.2-4.5V19.3c0-2.3-0.1-4.1-0.2-5.4c-0.1-1.3-0.5-2.3-1.1-2.9c-0.6-0.7-1.5-1.1-2.7-1.4c-1.2-0.3-2.9-0.6-5.1-0.8
		c-0.1-0.9-0.1-1.7,0-2.6c1.8,0,3.6,0,5.6,0.1c2,0.1,4,0.1,6,0.1c0.3,0,1.1,0,2.3,0c1.3,0,2.4,0,3.4-0.1l34.6,45.5V19
		c0-2.2,0-3.8-0.1-5c-0.1-1.2-0.4-2.1-1.1-2.6c-1.2-1.2-4.1-2-8.6-2.4c-0.2-1-0.2-1.9,0-2.7c1.1,0,2.4,0,3.9,0c1.5,0,3,0.1,4.4,0.1
		c1.4,0,2.6,0,3.5,0c1.4,0,3.2,0,5.3-0.1c2.1-0.1,4-0.1,5.6-0.1c0.1,0.9,0.1,1.7,0,2.6c-2.7,0.3-4.7,0.7-5.9,1.1s-1.9,1.2-2.2,2.3
		s-0.4,3-0.4,5.5V66c-0.6,0.1-1.3,0.2-2.3,0.3C357.3,66.4,356.5,66.4,355.7,66.4z"/>
	<path class="st1" d="M394,65.9c-1.6,0-3.2,0-4.9-0.1c-1.7-0.1-3.5-0.1-5.5-0.1c-1.8,0-3.6,0-5.5,0.1c-1.8,0.1-3.6,0.1-5.3,0.1
		c-0.2-0.9-0.2-1.8,0-2.6c1.9-0.1,3.3-0.3,4.3-0.6c0.9-0.3,1.5-0.8,1.8-1.7c0.3-0.9,0.4-2.2,0.4-4.1V37.9c0-2.2-0.1-3.9-0.3-4.9
		c-0.2-1.1-0.7-1.8-1.6-2.3c-0.9-0.4-2.4-0.8-4.6-1.1c-0.2-0.8-0.2-1.5,0-2.2c2.5-0.5,4.9-1,7.2-1.7c2.3-0.7,4.5-1.4,6.6-2.2
		l1.4,0.5c-0.1,1.8-0.1,3.4-0.1,4.9c0,1.5,0,3,0,4.3v22.8c0,2.2,0.1,3.8,0.4,4.8c0.3,1,0.8,1.6,1.7,1.8c0.9,0.3,2.3,0.4,4.1,0.6
		C394.1,64.1,394.1,65,394,65.9z M376.9,9c0-1.6,0.6-3,1.7-4.2c1.2-1.1,2.6-1.7,4.2-1.7c1.6,0,3,0.6,4.1,1.7
		c1.2,1.1,1.7,2.5,1.7,4.1c0,1.5-0.6,2.8-1.7,4c-1.1,1.2-2.6,1.8-4.3,1.8c-1.6,0-3-0.6-4.1-1.7C377.5,11.9,376.9,10.6,376.9,9z"/>
</g>
<g class="st3">
	<path class="st1" d="M414.8,87.5c-5,0-9-0.9-12.1-2.6c-3.1-1.8-4.6-4.2-4.6-7.3c0-2.4,0.9-4.5,2.6-6c1.7-1.6,3.8-3.2,6.3-4.8
		c-2.2-0.5-3.9-1.4-5-2.7c-1.1-1.3-1.7-2.8-1.7-4.6c0-3.1,2.2-6.2,6.7-9.3c-1.9-1.2-3.4-2.7-4.5-4.6c-1.1-1.9-1.7-4.1-1.7-6.6
		c0-3.1,0.8-5.8,2.4-8c1.6-2.2,3.7-4,6.4-5.2c2.6-1.2,5.5-1.8,8.5-1.8c4.4,0,8.1,1.2,11.1,3.7c3.1-2.4,6.1-3.7,9-3.7
		c1.5,0,2.6,0.3,3.5,1c0.9,0.7,1.3,1.6,1.3,2.9c0,1.2-0.4,2.2-1.2,3c-0.8,0.7-1.8,1.1-2.9,1.1c-1.1,0-2-0.3-2.8-1
		c-0.8-0.7-1.3-1.6-1.5-2.8c-0.8,0.2-1.4,0.4-1.9,0.6c-0.5,0.2-1,0.5-1.7,0.9c1.9,2.4,2.9,5.3,2.9,8.7c0,3.1-0.8,5.8-2.3,8
		c-1.5,2.2-3.6,3.9-6.1,5c-2.5,1.2-5.3,1.7-8.3,1.7c-2.8,0-5.5-0.5-7.9-1.5c-1.4,1.4-2.1,2.9-2.1,4.5c0,1.4,0.5,2.3,1.6,2.7
		c1.1,0.4,3.1,0.6,6,0.6c1.3,0,2.9,0,4.7,0c1.8,0,3.2,0,4,0c5.7,0,9.8,1,12.3,3c2.5,2,3.7,4.8,3.7,8.3c0,2.8-0.7,5.2-2,7.4
		c-1.4,2.1-3.2,3.9-5.5,5.4c-2.3,1.4-5,2.5-7.9,3.2C421,87.2,417.9,87.5,414.8,87.5z M410.6,67.2c-3.1,2.6-4.6,5.3-4.6,8.1
		c0,2,0.6,3.6,1.8,4.9c1.2,1.2,2.8,2.2,4.7,2.7c1.9,0.6,4,0.9,6.1,0.9c1.9,0,3.9-0.3,6-0.9c2.1-0.6,3.9-1.6,5.4-3
		c1.5-1.4,2.2-3.5,2.2-6.1c0-2.4-0.8-4.1-2.5-5.1c-1.7-1-4.8-1.5-9.3-1.5c-1.1,0-2.4,0-4,0c-1.6,0-3.4,0-5.3,0
		C410.9,67.2,410.8,67.2,410.6,67.2z M417.3,50c2.5,0,4.4-1,5.7-3c1.3-2,2-4.8,2-8.4c0-3.6-0.7-6.5-2-8.6c-1.4-2.1-3.4-3.2-6-3.2
		c-2.4,0-4.3,1-5.7,2.9c-1.3,2-2,4.7-2,8.3c0,3.6,0.7,6.5,2.1,8.7C412.9,49,414.8,50,417.3,50z"/>
</g>
<g class="st3">
	<path class="st1" d="M474.2,66.7c-3.7,0-6.1-1.9-7.1-5.6c-4,3.9-8.1,5.8-12.3,5.8c-2.9,0-5.4-0.9-7.4-2.6c-2-1.7-3-4.1-3-7.2
		c0-7.5,7.6-12.2,22.9-14.1c0-1.4,0-2.8,0-4.2c0-1.4,0-2.9,0-4.5c0-2-0.7-3.5-2.2-4.6c-1.4-1.1-3.2-1.7-5.2-1.7
		c-1.5,0-2.7,0.2-3.7,0.7c0,1.3-0.3,2.6-0.9,4c-0.6,1.4-1.3,2.5-2.3,3.4c-1,0.9-2.2,1.4-3.6,1.4c-1.2,0-2.2-0.4-2.9-1.1
		c-0.7-0.7-1.1-1.6-1.1-2.6c0-1.4,0.6-2.7,1.9-3.9c1.3-1.2,2.9-2.3,4.9-3.2c2-0.9,4.1-1.6,6.2-2.1c2.2-0.5,4.1-0.8,5.8-0.8
		c2.1,0,4,0.4,5.8,1.1c1.8,0.8,3.2,1.9,4.3,3.4c1.1,1.5,1.7,3.4,1.7,5.6c0,1.4,0,3.1-0.1,5.3c-0.1,2.2-0.1,4.5-0.1,7
		c0,2.5-0.1,4.8-0.1,7c-0.1,2.2-0.1,4-0.1,5.4c0,1.8,0.8,2.7,2.4,2.7c1,0,2.6-0.3,4.7-1c0.2,0.3,0.4,0.6,0.5,0.9
		c0.1,0.3,0.2,0.7,0.2,0.9c-1.4,1.5-2.9,2.6-4.5,3.3C477.4,66.3,475.8,66.7,474.2,66.7z M467.1,58.7l0.2-12.8
		c-5.2,0.7-8.8,1.8-10.8,3.3c-2,1.5-2.9,3.5-2.9,5.9c0,2,0.5,3.5,1.6,4.6c1,1.1,2.4,1.6,4,1.6c1,0,2.2-0.2,3.5-0.7
		C463.9,60.2,465.4,59.5,467.1,58.7z"/>
	<path class="st1" d="M537.6,65.9c-0.2-0.9-0.2-1.8,0-2.6c1.7-0.1,3-0.3,3.8-0.6c0.9-0.3,1.4-0.8,1.7-1.7c0.3-0.9,0.5-2.2,0.5-4.1
		V39.7c0-3.3-0.5-5.9-1.5-7.6c-1-1.7-3-2.6-6.1-2.6c-3.8,0-7,1.4-9.7,4.3c0.1,0.9,0.2,1.9,0.2,2.9v19.3c0,2.2,0.1,3.8,0.4,4.8
		c0.3,1,0.8,1.6,1.7,1.8c0.9,0.3,2.2,0.4,3.9,0.6c0.1,0.9,0.1,1.7,0,2.6c-1.6,0-3.2,0-4.8-0.1c-1.6-0.1-3.5-0.1-5.6-0.1
		c-2.1,0-3.9,0-5.5,0.1c-1.6,0.1-3.1,0.1-4.5,0.1c-0.2-0.9-0.2-1.8,0-2.6c1.6-0.1,2.9-0.3,3.7-0.6c0.8-0.3,1.4-0.8,1.7-1.7
		s0.4-2.2,0.4-4.1V39.7c0-3.3-0.5-5.9-1.4-7.6c-1-1.7-3-2.6-6.1-2.6c-3.6,0-6.7,1.4-9.4,4.3v22.1c0,2.2,0.1,3.8,0.4,4.8
		c0.3,1,0.8,1.6,1.7,1.8c0.9,0.3,2.2,0.4,4,0.6c0.1,0.9,0.1,1.7,0,2.6c-1.6,0-3.2,0-4.9-0.1c-1.7-0.1-3.6-0.1-5.7-0.1
		c-2,0-3.9,0-5.5,0.1c-1.6,0.1-3.3,0.1-5,0.1c-0.2-0.9-0.2-1.8,0-2.6c1.9-0.1,3.3-0.3,4.3-0.6c0.9-0.3,1.5-0.8,1.8-1.7
		c0.3-0.9,0.4-2.2,0.4-4.1V37.9c0-2.2-0.1-3.9-0.3-4.9c-0.2-1.1-0.7-1.8-1.6-2.3c-0.9-0.4-2.4-0.8-4.5-1.1c-0.2-0.8-0.2-1.5,0-2.2
		c2.4-0.5,4.7-1,6.9-1.6c2.2-0.6,4.4-1.4,6.6-2.3l1.4,0.5v6.3c4.6-4.3,9.4-6.4,14.4-6.4c3.1,0,5.5,0.7,7.1,2
		c1.6,1.3,2.7,2.9,3.3,4.9c2.4-2.3,4.9-4,7.5-5.2c2.6-1.1,5.1-1.7,7.8-1.7c3.7,0,6.6,1.1,8.5,3.3c1.9,2.2,2.9,5.4,2.9,9.5v19.3
		c0,2.2,0.1,3.8,0.3,4.8c0.2,1,0.8,1.6,1.6,1.8c0.9,0.3,2.2,0.4,3.9,0.6c0.2,0.9,0.2,1.7,0,2.6c-1.6,0-3.2,0-4.8-0.1
		c-1.6-0.1-3.4-0.1-5.5-0.1c-2.2,0-4,0-5.7,0.1S539,65.9,537.6,65.9z"/>
	<path class="st1" d="M592.5,66.7c-3.7,0-6.1-1.9-7.1-5.6c-4,3.9-8.1,5.8-12.3,5.8c-2.9,0-5.4-0.9-7.4-2.6c-2-1.7-3-4.1-3-7.2
		c0-7.5,7.6-12.2,22.9-14.1c0-1.4,0-2.8,0-4.2c0-1.4,0-2.9,0-4.5c0-2-0.7-3.5-2.2-4.6c-1.4-1.1-3.2-1.7-5.2-1.7
		c-1.5,0-2.7,0.2-3.7,0.7c0,1.3-0.3,2.6-0.9,4c-0.6,1.4-1.3,2.5-2.3,3.4c-1,0.9-2.2,1.4-3.6,1.4c-1.2,0-2.2-0.4-2.9-1.1
		c-0.7-0.7-1.1-1.6-1.1-2.6c0-1.4,0.6-2.7,1.9-3.9c1.3-1.2,2.9-2.3,4.9-3.2c2-0.9,4.1-1.6,6.2-2.1c2.2-0.5,4.1-0.8,5.8-0.8
		c2.1,0,4,0.4,5.8,1.1c1.8,0.8,3.2,1.9,4.3,3.4c1.1,1.5,1.7,3.4,1.7,5.6c0,1.4,0,3.1-0.1,5.3c-0.1,2.2-0.1,4.5-0.1,7
		c0,2.5-0.1,4.8-0.1,7c-0.1,2.2-0.1,4-0.1,5.4c0,1.8,0.8,2.7,2.4,2.7c1,0,2.6-0.3,4.7-1c0.2,0.3,0.4,0.6,0.5,0.9s0.2,0.7,0.2,0.9
		c-1.4,1.5-2.9,2.6-4.5,3.3C595.7,66.3,594.1,66.7,592.5,66.7z M585.4,58.7l0.2-12.8c-5.2,0.7-8.8,1.8-10.8,3.3
		c-2,1.5-2.9,3.5-2.9,5.9c0,2,0.5,3.5,1.6,4.6c1.1,1.1,2.4,1.6,4,1.6c1,0,2.2-0.2,3.4-0.7C582.2,60.2,583.7,59.5,585.4,58.7z"/>
</g>
<g class="st3">
	<path class="st1" d="M305.7,129.6c-0.1-0.6-0.1-1.2,0-1.8c1.8-0.2,3.1-0.4,3.9-0.5c0.8-0.2,1.3-0.5,1.5-1.1
		c0.2-0.6,0.3-1.5,0.3-2.9V96.8c0-1.6-0.1-2.7-0.3-3.4c-0.2-0.7-0.7-1.1-1.4-1.3c-0.8-0.2-2-0.4-3.8-0.5c-0.1-0.6-0.1-1.2,0-1.8
		c0.9,0,1.7,0,2.3,0c0.6,0,1.3,0,2,0s1.5,0,2.6,0c1,0,2.4,0,4.2,0c2.2,0,4.4,0,6.6,0c2.2,0,4.3,0,6.2,0c1.9,0,3.5,0,4.7,0
		c1.2,0,1.8,0,1.9,0c0.2,1.4,0.4,2.9,0.6,4.5c0.2,1.6,0.5,3.2,0.7,4.9c-0.3,0-0.6,0.1-0.9,0.1c-0.3,0-0.6,0-0.9-0.1
		c-1-2.5-2.1-4.3-3.5-5.3c-1.4-1.1-3.5-1.6-6.4-1.6h-8.2v16.1h3.7c1.8,0,3.2-0.1,4.1-0.4s1.6-0.8,2.1-1.6c0.5-0.9,0.8-2.2,1.1-4.1
		c0.7-0.1,1.3-0.1,1.9,0c0,1.6-0.1,2.8-0.1,3.8s0,1.7,0,2.2c0,0.5,0,1,0,1.5c0,0.4,0,0.9,0,1.4c0,0.5,0,1.3,0,2.2
		c0,0.9,0,2.2,0.1,3.9c-0.6,0.1-1.2,0.1-1.9,0c-0.2-2-0.6-3.5-1-4.3c-0.5-0.9-1.1-1.4-2-1.7c-0.9-0.2-2.1-0.3-3.8-0.3h-4.3v11.8
		c0,1.2,0,2.1,0.1,2.7c0.1,0.6,0.3,1.2,0.7,1.5c0.4,0.3,1,0.6,1.7,0.7c0.8,0.1,1.9,0.2,3.4,0.3c0.1,0.6,0.1,1.2,0,1.8
		c-0.8,0-1.8,0-2.9,0c-1.1,0-2.3,0-3.4-0.1c-1.1,0-2.1,0-2.8,0c-0.7,0-1.6,0-2.7,0c-1.1,0-2.1,0-3.2,0.1
		C307.5,129.6,306.6,129.6,305.7,129.6z"/>
</g>
<g class="st3">
	<path class="st1" d="M351.3,130.2c-2.8,0-5.2-0.6-7.2-1.8c-2.1-1.2-3.7-2.8-4.8-4.9c-1.1-2.1-1.7-4.5-1.7-7.2c0-3,0.6-5.5,1.8-7.7
		c1.2-2.2,2.9-3.9,5-5.1c2.2-1.2,4.6-1.8,7.4-1.8c2.8,0,5.2,0.6,7.2,1.8c2,1.2,3.6,2.9,4.8,5c1.1,2.1,1.7,4.5,1.7,7.2
		c0,2.8-0.6,5.3-1.8,7.5c-1.2,2.2-2.8,4-5,5.2C356.6,129.6,354.2,130.2,351.3,130.2z M344,115.6c0,3.9,0.6,6.9,1.9,9.2
		c1.3,2.3,3.2,3.4,5.7,3.4c2.4,0,4.3-1.1,5.6-3.2c1.3-2.1,1.9-5,1.9-8.6c0-3.8-0.6-6.9-1.9-9.1c-1.3-2.3-3.2-3.4-5.6-3.4
		c-2.4,0-4.3,1-5.6,3.1C344.6,109,344,111.9,344,115.6z"/>
	<path class="st1" d="M380.6,130.2c-2.5,0-4.4-0.7-5.7-2.2c-1.3-1.5-2-3.6-2-6.3v-11.5c0-1.5-0.1-2.6-0.2-3.3
		c-0.1-0.7-0.5-1.2-1.1-1.5c-0.6-0.3-1.6-0.5-3-0.7c-0.2-0.5-0.2-1,0-1.4c1.6-0.2,3.2-0.5,4.7-0.7c1.5-0.3,3-0.6,4.5-1l0.9,0.4
		c0,1.2-0.1,2.3-0.1,3.3c0,1,0,2,0,2.9v11.5c0,2.3,0.3,4,1.1,5.1c0.7,1.1,2.1,1.7,4.1,1.7c1.1,0,2.2-0.3,3.2-0.8
		c1-0.5,2-1.3,2.9-2.2v-13.2c0-1.5-0.1-2.6-0.2-3.3c-0.1-0.7-0.5-1.2-1.1-1.5c-0.6-0.3-1.6-0.5-3-0.7c-0.1-0.5-0.1-1,0-1.4
		c1.6-0.2,3.2-0.5,4.7-0.7c1.5-0.3,3-0.6,4.6-1l0.9,0.4c0,1.2-0.1,2.3-0.1,3.3c0,1,0,2,0,2.9v14.7c0,1.1,0.1,2,0.2,2.6
		c0.1,0.6,0.5,1,1.1,1.2c0.6,0.2,1.7,0.4,3.1,0.6c0,0.5,0,0.9,0,1.4c-1.6,0.2-3.2,0.3-4.7,0.6c-1.5,0.2-2.9,0.5-4.3,0.9l-0.9-0.4
		l-0.1-4C386.8,128.7,383.7,130.2,380.6,130.2z"/>
	<path class="st1" d="M420.2,129.6c-0.1-0.6-0.1-1.2,0-1.8c1.2-0.1,2-0.2,2.6-0.4c0.6-0.2,0.9-0.5,1.1-1.1c0.2-0.6,0.3-1.5,0.3-2.7
		v-11.5c0-2.3-0.3-4-1-5.1c-0.7-1.1-2.1-1.7-4.2-1.7c-1.1,0-2.2,0.2-3.2,0.6c-1,0.4-2.1,1.1-3.3,2.2v14.8c0,1.5,0.1,2.5,0.3,3.2
		c0.2,0.6,0.5,1,1.1,1.2c0.6,0.2,1.5,0.3,2.7,0.4c0.1,0.6,0.1,1.2,0,1.8c-1.1,0-2.2,0-3.3-0.1c-1.2,0-2.4-0.1-3.7-0.1
		c-1.2,0-2.4,0-3.6,0.1c-1.2,0-2.3,0.1-3.5,0.1c-0.1-0.6-0.1-1.2,0-1.8c1.3-0.1,2.2-0.2,2.8-0.4c0.6-0.2,1-0.5,1.2-1.1
		c0.2-0.6,0.3-1.5,0.3-2.7v-12.7c0-1.5-0.1-2.6-0.2-3.3c-0.1-0.7-0.5-1.2-1.1-1.5s-1.6-0.5-3-0.7c-0.1-0.5-0.1-1,0-1.5
		c3.3-0.6,6.2-1.5,9-2.6l1,0.3v4.3c1.7-1.6,3.4-2.7,5.1-3.4c1.7-0.6,3.3-1,4.8-1c2.5,0,4.4,0.7,5.7,2.2c1.3,1.5,2,3.6,2,6.4v12.9
		c0,1.5,0.1,2.5,0.3,3.2c0.2,0.6,0.5,1,1.1,1.2c0.6,0.2,1.5,0.3,2.7,0.4c0.1,0.6,0.1,1.2,0,1.8c-1.1,0-2.2,0-3.3-0.1
		s-2.3-0.1-3.8-0.1c-1.4,0-2.6,0-3.7,0.1S421.2,129.6,420.2,129.6z"/>
	<path class="st1" d="M458.7,130.3l-0.9-0.4l-0.2-3.9c-1.3,1.4-2.7,2.5-4.1,3.2s-2.9,1.1-4.6,1.1c-2.3,0-4.4-0.6-6.2-1.9
		c-1.8-1.3-3.1-2.9-4.1-5c-0.9-2-1.4-4.3-1.4-6.6c0-2.8,0.6-5.3,1.8-7.6c1.2-2.3,2.9-4.1,5.1-5.5c2.2-1.4,4.7-2.1,7.6-2.1
		c0.9,0,1.8,0.1,2.7,0.2c0.9,0.1,1.9,0.4,3,0.7v-7.3c0-1.2-0.1-2.1-0.3-2.6c-0.2-0.6-0.7-1-1.3-1.2c-0.7-0.2-1.7-0.4-3-0.5
		c-0.1-0.5-0.1-1,0-1.5c1.5-0.2,3.1-0.5,4.7-0.9s3.2-1,4.9-1.7l1,0.3c0,0.8-0.1,1.8-0.1,2.8c0,1.1,0,2.2,0,3.5v28.2
		c0,1.4,0.1,2.5,0.2,3.2c0.1,0.7,0.5,1.2,1,1.5c0.6,0.3,1.5,0.5,2.9,0.8c0.1,0.5,0.1,1,0,1.5c-1.5,0.2-3,0.5-4.4,0.7
		C461.4,129.5,460.1,129.9,458.7,130.3z M457.5,107.3c-1.6-2.2-3.8-3.3-6.4-3.3c-2.6,0-4.6,1-5.9,2.9c-1.3,1.9-2,4.6-2,7.9
		c0,2,0.3,3.9,0.8,5.7s1.4,3.3,2.6,4.5c1.2,1.2,2.8,1.8,4.8,1.8c2.5,0,4.6-1.1,6.1-3.3V107.3z"/>
	<path class="st1" d="M490.3,130.1c-2.5,0-4.1-1.2-4.7-3.7c-2.7,2.6-5.4,3.9-8.2,3.9c-1.9,0-3.6-0.6-4.9-1.7c-1.3-1.2-2-2.8-2-4.8
		c0-5,5.1-8.1,15.3-9.4c0-0.9,0-1.8,0-2.8c0-0.9,0-1.9,0-3c0-1.3-0.5-2.4-1.4-3.1c-1-0.7-2.1-1.1-3.5-1.1c-1,0-1.8,0.2-2.5,0.5
		c0,0.9-0.2,1.8-0.6,2.7c-0.4,0.9-0.9,1.7-1.6,2.3c-0.7,0.6-1.5,0.9-2.4,0.9c-0.8,0-1.5-0.2-2-0.7s-0.7-1.1-0.7-1.7
		c0-0.9,0.4-1.8,1.3-2.6c0.9-0.8,1.9-1.5,3.3-2.1c1.3-0.6,2.7-1.1,4.1-1.4c1.4-0.3,2.7-0.5,3.9-0.5c1.4,0,2.7,0.3,3.9,0.8
		c1.2,0.5,2.2,1.3,2.9,2.3c0.7,1,1.1,2.2,1.1,3.7c0,0.9,0,2.1-0.1,3.5c0,1.5-0.1,3-0.1,4.7c0,1.6,0,3.2-0.1,4.7s-0.1,2.7-0.1,3.6
		c0,1.2,0.5,1.8,1.6,1.8c0.7,0,1.7-0.2,3.1-0.7c0.2,0.2,0.3,0.4,0.3,0.6c0.1,0.2,0.1,0.4,0.1,0.6c-0.9,1-1.9,1.8-3,2.2
		C492.4,129.9,491.4,130.1,490.3,130.1z M485.6,124.8l0.1-8.5c-3.5,0.5-5.9,1.2-7.2,2.2c-1.3,1-2,2.3-2,3.9c0,1.3,0.3,2.3,1.1,3
		c0.7,0.7,1.6,1,2.6,1c0.7,0,1.4-0.2,2.3-0.5C483.4,125.8,484.4,125.3,485.6,124.8z"/>
	<path class="st1" d="M509,130.2c-2.3,0-4.1-0.5-5.4-1.6c-1.3-1.1-2-2.6-2-4.7c0-3.3,0-6.5,0.1-9.7s0.1-6.1,0.1-9h-4.3
		c-0.1-0.6-0.1-1.1,0-1.5c3.7-1.6,6.6-4.2,8.5-7.8c0.3,0,0.6,0,0.9,0c0.3,0,0.6,0,0.8,0.1c0,1-0.1,2-0.1,3.1c0,1.1,0,2.3-0.1,3.5
		h8.6c0.1,0.8,0.1,1.7,0,2.6h-8.6c-0.1,2.7-0.1,5.4-0.1,8.4c0,2.9,0,5.9,0,8.8c0,3.1,1.6,4.6,4.8,4.6c1.4,0,2.6-0.4,3.8-1.1
		c0.3,0.5,0.5,1,0.6,1.7C514.3,129.4,511.8,130.2,509,130.2z"/>
	<path class="st1" d="M532.8,129.6c-1.1,0-2.2,0-3.3-0.1c-1.1,0-2.4-0.1-3.7-0.1c-1.2,0-2.4,0-3.7,0.1c-1.2,0-2.4,0.1-3.5,0.1
		c-0.1-0.6-0.1-1.2,0-1.8c1.3-0.1,2.2-0.2,2.8-0.4c0.6-0.2,1-0.5,1.2-1.1s0.3-1.5,0.3-2.7v-12.7c0-1.5-0.1-2.6-0.2-3.3
		c-0.1-0.7-0.5-1.2-1.1-1.5c-0.6-0.3-1.6-0.5-3-0.7c-0.1-0.5-0.1-1,0-1.5c1.7-0.3,3.3-0.7,4.8-1.1c1.5-0.5,3-0.9,4.4-1.5l1,0.3
		c0,1.2-0.1,2.3-0.1,3.3c0,1,0,2,0,2.9v15.2c0,1.5,0.1,2.5,0.3,3.2s0.5,1,1.1,1.2c0.6,0.2,1.5,0.3,2.8,0.4
		C533,128.4,533,129,532.8,129.6z M521.5,91.7c0-1.1,0.4-2,1.2-2.8c0.8-0.8,1.7-1.1,2.8-1.1c1.1,0,2,0.4,2.8,1.1
		c0.8,0.8,1.2,1.7,1.2,2.7c0,1-0.4,1.9-1.1,2.7c-0.8,0.8-1.7,1.2-2.9,1.2c-1.1,0-2-0.4-2.7-1.1C521.9,93.6,521.5,92.7,521.5,91.7z"
		/>
	<path class="st1" d="M550,130.2c-2.8,0-5.2-0.6-7.2-1.8c-2.1-1.2-3.7-2.8-4.8-4.9c-1.1-2.1-1.7-4.5-1.7-7.2c0-3,0.6-5.5,1.8-7.7
		c1.2-2.2,2.9-3.9,5-5.1c2.2-1.2,4.6-1.8,7.4-1.8c2.8,0,5.2,0.6,7.2,1.8c2,1.2,3.6,2.9,4.8,5c1.1,2.1,1.7,4.5,1.7,7.2
		c0,2.8-0.6,5.3-1.8,7.5c-1.2,2.2-2.8,4-5,5.2C555.3,129.6,552.8,130.2,550,130.2z M542.7,115.6c0,3.9,0.6,6.9,1.9,9.2
		c1.3,2.3,3.2,3.4,5.7,3.4c2.4,0,4.3-1.1,5.6-3.2c1.3-2.1,1.9-5,1.9-8.6c0-3.8-0.6-6.9-1.9-9.1c-1.3-2.3-3.2-3.4-5.6-3.4
		c-2.4,0-4.3,1-5.6,3.1C543.3,109,542.7,111.9,542.7,115.6z"/>
	<path class="st1" d="M585.8,129.6c-0.1-0.6-0.1-1.2,0-1.8c1.2-0.1,2-0.2,2.6-0.4c0.6-0.2,0.9-0.5,1.1-1.1s0.3-1.5,0.3-2.7v-11.5
		c0-2.3-0.4-4-1.1-5.1s-2.1-1.7-4.2-1.7c-1.1,0-2.2,0.2-3.2,0.6c-1,0.4-2.1,1.1-3.4,2.2v14.8c0,1.5,0.1,2.5,0.3,3.2s0.5,1,1.1,1.2
		c0.6,0.2,1.5,0.3,2.7,0.4c0.1,0.6,0.1,1.2,0,1.8c-1.1,0-2.2,0-3.3-0.1c-1.2,0-2.4-0.1-3.7-0.1c-1.2,0-2.4,0-3.6,0.1
		c-1.2,0-2.3,0.1-3.5,0.1c-0.1-0.6-0.1-1.2,0-1.8c1.3-0.1,2.2-0.2,2.8-0.4c0.6-0.2,1-0.5,1.2-1.1s0.3-1.5,0.3-2.7v-12.7
		c0-1.5-0.1-2.6-0.2-3.3c-0.1-0.7-0.5-1.2-1.1-1.5c-0.6-0.3-1.6-0.5-3-0.7c-0.1-0.5-0.1-1,0-1.5c3.3-0.6,6.2-1.5,9-2.6l1,0.3v4.3
		c1.7-1.6,3.4-2.7,5.1-3.4c1.7-0.6,3.3-1,4.8-1c2.5,0,4.4,0.7,5.7,2.2c1.3,1.5,2,3.6,2,6.4v12.9c0,1.5,0.1,2.5,0.3,3.2
		c0.2,0.6,0.5,1,1.1,1.2c0.6,0.2,1.5,0.3,2.7,0.4c0.1,0.6,0.1,1.2,0,1.8c-1.1,0-2.2,0-3.3-0.1c-1.1,0-2.3-0.1-3.8-0.1
		c-1.4,0-2.6,0-3.7,0.1C587.9,129.6,586.8,129.6,585.8,129.6z"/>
</g>
</svg>
